# xmcd
#
# Track frame offsets:
#	150
#	17141
#	32046
#	49497
#	67536
#	80897
#	94264
#	109899
#	127190
#	144259
#	158000
#	173196
#	189612
#	231825
#	244456
#	262492
#	276527
#	298168
#	314511
#
# Disc length: 4362 seconds
#
# Revision: 1
# Processed by: cddbd v1.4PL0 Copyright (c) Steve Scherf et al.
# Submitted via: audiograbber 1.82.00
#
DISCID=2d110813
DTITLE=Various Artist - Planet DJ Country #1
DYEAR=1900
DGENRE=Country
TTITLE0=Alabama - If Your Gonna Play In Texas  (Party Fast)
TTITLE1=Chet Atkins - I Break For Brunettes  (West Coast Swing)
TTITLE2=Belamy Brothers - Redneck Girl  (Slappin leather)
TTITLE3=Clint Black  - No Time 2 Kill  (2 step - fast)
TTITLE4=Brooks and Dunn - Hard Workin Man  (Schottsche  -east coast swing)i
TTITLE5=Brooks And Dunn - Little Miss Honky Tonk  (schottische  east coast swin
TTITLE5=g)
TTITLE6=Brooks and Dunn - My Maria  (double 2 - cha cha)
TTITLE7=Brother Phelps - Anyway The wind Blows  (2 step fast)
TTITLE8=Tracy Byrd - Holdin Heaven  (2 step - fast)
TTITLE9=Tracy Byrd - Watermellon Crawl  (Line dance)
TTITLE10=Tracy Byrd - Heaven In My woman's Eyes  (2 step)
TTITLE11=Paul Bryant - I Do  (ballad)
TTITLE12=Mary Chapin Carpenter - I feel Lucky  (west Coast swin - Sleazy Slide)
TTITLE13=Mark Chesnutt - Your Love Is A Miricle  (2 step Fast)
TTITLE14=Hank Williams Jr - Family Tradition  (2 step)
TTITLE15=Mark Chesnutt - Your Love is  A Miricle  (2 step - fast)
TTITLE16=Dwight Yokym - Fast As You  (tush push)
TTITLE17=Alan Jackson - Mercury Blues  (2 step skip)
TTITLE18=Vince gill - Liza Jane  (2step fast)
EXTD=
EXTT0=
EXTT1=
EXTT2=
EXTT3=
EXTT4=
EXTT5=
EXTT6=
EXTT7=
EXTT8=
EXTT9=
EXTT10=
EXTT11=
EXTT12=
EXTT13=
EXTT14=
EXTT15=
EXTT16=
EXTT17=
EXTT18=
PLAYORDER=
